<svg xmlns="http://www.w3.org/2000/svg" width="2945.034" height="816.091"><g data-name="Сгруппировать 42" fill="#21adc4"><g data-name="Сгруппировать 30"><path data-name="Контур 16" d="M121.131 417.803V61.591h634.408v356.212h61.578V.003H59.544v417.8Z"/><path data-name="Контур 17" d="M562.676 330.812q57.668-40.409 57.688-102.349 0-54.99-39.953-92.6-39.953-37.591-97.958-37.6-59.017 0-99.783 37.929-40.806 37.952-40.776 92.275 0 31.1 12.749 54.817 12.755 23.687 42.28 47.531-55.109 32.038-63.877 86.98h67.553a65.192 65.192 0 0 1 20.026-33.083q22.377-20.216 57.846-20.248 36.124 0 58.838 20.062a64.42 64.42 0 0 1 20.419 33.274h67.514q-8.748-55.807-62.566-86.988Zm-29.505-51.393q-21.247 20.417-51.377 20.411-30.511 0-52.226-20.552t-21.7-49.4q0-30.173 20.552-49.4 20.552-19.244 52.715-19.229 31.839 0 52.543 19.56t20.711 49.713q-.006 28.555-21.219 48.902Z"/><path data-name="Контур 18" d="M242.267 417.803h61.593v-307.96l-61.593 65.712Z"/><path data-name="Прямоугольник 12" d="M180.675 417.803h61.592v260.238h-61.592z"/><path data-name="Контур 19" d="M695.986 416.783v337.729H61.591V416.783H0v399.308h757.566V416.783Z"/><path data-name="Контур 20" d="M557.691 417.802h-79.388L274.031 678.041h282.1v-61.592h-155.28Z"/></g><path data-name="Контур 21" d="M1239.386 130.767v542.424h-60.528v-248.32h-37.248v248.32h-60.528V130.767h60.528v249.1h37.248v-249.1Zm88.464 544.752q-28.712 0-47.336-19.788t-18.624-54.708V361.239q.776-34.92 19.012-54.708t46.948-19.788h13.192q28.712 0 47.724 19.788t19.012 54.708v239.784q0 34.92-19.012 54.708t-47.724 19.788Zm6.208-341.44q-15.52 0-15.52 28.712v236.68q0 28.712 15.52 28.712h3.1q13.968 0 13.968-28.712v-236.68q0-28.712-13.968-28.712Zm158.308 341.44q-28.712 0-47.336-19.788t-18.628-54.708V361.239q.776-34.92 19.012-54.708t46.952-19.788h13.192q28.712 0 47.724 19.788t19.012 54.708v239.784q0 34.92-19.012 54.708t-47.728 19.788Zm6.208-341.44q-15.52 0-15.52 28.712v236.68q0 28.712 15.52 28.712h3.1q13.968 0 13.968-28.712v-236.68q0-28.712-13.968-28.712Zm185.464 138.9 65.956 200.212h-56.648l-43.456-135.024v135.024h-56.648V130.767h56.648v284.792l45.784-126.488h54.32Zm113.292 202.54q-28.712 0-36.86-19.788t-8.148-54.708v-68.288q0-34.92 10.088-54.708t38.024-19.788h2.332a49.718 49.718 0 0 1 19.4 4.268 117.349 117.349 0 0 1 19.4 10.476V362.791q0-28.712-14.744-28.712h-3.1q-14.744 0-14.744 28.712v84.584h-56.656v-86.136q0-34.92 19.012-54.708t47.724-19.788h13.192q28.712 0 47.336 19.788t18.624 55.484v311.176h-56.644v-13.968q-22.5 16.3-41.9 16.3Zm26.384-175.376q-14.744 0-14.744 28.712v76.048q0 28.712 14.744 28.712h1.552q6.984 0 11.64-6.6t4.66-22.112v-90.792q0-7.76-4.268-10.864a14.013 14.013 0 0 0-8.148-3.1Zm169.944-166.064q-6.208 0-11.64 7.372t-6.208 20.564v311.176h-56.644V130.767h56.648v176.924a78.478 78.478 0 0 1 18.624-15.132 41.37 41.37 0 0 1 20.952-5.82h2.328q28.712 0 38.412 19.788t9.7 54.708v311.956h-56.652v-310.4q0-28.712-13.968-28.712Zm276.256 14.744v-135.8q0-20.176-4.656-27.936t-13.192-7.76h-3.1q-8.536 0-13.192 8.148t-4.656 28.324v65.184q0 38.024 15.52 65.184a534.58 534.58 0 0 0 34.144 52.38 510.742 510.742 0 0 1 34.144 52.768q15.52 27.548 15.52 66.348v83.808q0 20.952-6.208 35.7t-16.3 24.056a66.629 66.629 0 0 1-23.28 13.964 81.026 81.026 0 0 1-27.16 4.656h-11.64a87.691 87.691 0 0 1-27.16-4.268 66.674 66.674 0 0 1-24.056-13.968 71.195 71.195 0 0 1-17.46-24.444q-6.6-14.744-6.6-35.7V454.359h55.1v135.8q0 20.176 6.208 28.324t14.744 8.148h3.1q8.536 0 14.356-8.148t5.82-28.324v-65.184q0-38.024-15.52-65.184a534.584 534.584 0 0 0-34.144-52.38 510.777 510.777 0 0 1-34.144-52.768q-15.52-27.548-15.52-66.348v-83.804q0-20.952 6.6-35.7a69.669 69.669 0 0 1 17.072-24.056 70.736 70.736 0 0 1 23.668-13.968 78.831 78.831 0 0 1 26.384-4.656h7.76a77.73 77.73 0 0 1 26.772 4.656 71.652 71.652 0 0 1 23.28 13.968 65.651 65.651 0 0 1 16.684 24.056q6.208 14.744 6.208 35.7v144.336Zm153.652-185.464v125.712h30.264v47.336h-30.264v264.616q0 15.52 7.942 23.668t22.322 4.268v45.008q-24.056 3.1-40.352-1.552t-26.776-14.744a58.1 58.1 0 0 1-15.136-24.832 105.116 105.116 0 0 1-4.656-31.816V336.407h-18.624v-47.336h18.624v-120.28Zm110.188 512.16q-28.712 0-47.336-19.788t-18.624-54.708V361.239q.776-34.92 19.012-54.708t46.948-19.788h13.192q28.712 0 47.724 19.788t19.012 54.708v239.784q0 34.92-19.012 54.708t-47.724 19.788Zm6.208-341.44q-15.52 0-15.52 28.712v236.68q0 28.712 15.52 28.712h3.1q13.968 0 13.968-28.712v-236.68q0-28.712-13.968-28.712Zm167.616 0q-6.208 0-11.64 7.372t-6.208 20.564v311.176h-56.648v-384.12h56.648l.3 18.624a94.4 94.4 0 0 1 19.5-15.132 41.746 41.746 0 0 1 21.055-5.82h1.564q16.381 0 26.135 6.208t15.211 18.624q7.02 18.624 7.02 49.664v86.136h-56.648v-84.584q0-28.712-14.744-28.712Zm162.188 294.104h4.656q13.968 0 13.968-28.712v-86.136h56.648v86.912q0 35.7-19.012 55.484t-47.728 19.788h-13.968q-27.16 0-46.172-20.176t-19.012-55.1V362.015q0-35.7 18.624-55.484t47.336-19.788h13.192q28.712 0 47.724 19.788t19.012 54.708v133.472h-89.24v104.76q0 15.52 3.88 22.116t10.092 6.596Zm18.62-172.272v-93.12q0-28.712-13.968-28.712h-3.1q-15.52 0-15.52 28.712v93.12Z"/></g></svg>