<svg width="26" height="28" viewBox="0 0 26 28" fill="none" xmlns="http://www.w3.org/2000/svg">
<path fill-rule="evenodd" clip-rule="evenodd" d="M21.3393 12.803V9.39704C21.3393 5.00788 17.7812 1.44977 13.3921 1.44977C9.00291 1.44977 5.44479 5.00788 5.44479 9.39704V12.803C5.44479 16.5496 2.03882 17.4579 2.03882 19.615C2.03882 21.545 6.46659 23.0209 13.3921 23.0209C20.3176 23.0209 24.7453 21.545 24.7453 19.615C24.7453 17.4579 21.3393 16.5496 21.3393 12.803Z" stroke="#11142D" stroke-width="2.27065" stroke-linecap="round" stroke-linejoin="round"/>
<path d="M13.3922 25.2917C12.2444 25.2917 11.1658 25.2531 10.1508 25.1782C10.5949 26.5948 11.9075 27.5589 13.3922 27.5589C14.8768 27.5589 16.1894 26.5948 16.6335 25.1782C15.6185 25.2531 14.54 25.2917 13.3922 25.2917Z" fill="#1B1D21"/>
</svg>
