<svg width="21" height="16" viewBox="0 0 21 16" fill="none" xmlns="http://www.w3.org/2000/svg">
<path d="M9.7469 1.32951L9.7469 7.00613C9.7469 7.4764 9.36568 7.85763 8.89541 7.85763C8.46433 7.85763 8.10807 7.53729 8.05169 7.12167L8.04391 7.00613L8.04391 5.01843L1.5158 5.01931C1.04553 5.01931 0.664302 4.63809 0.664302 4.16782C0.664302 3.73674 0.984638 3.38048 1.40025 3.3241L1.5158 3.31633L8.04391 3.31544V1.32951C8.04391 0.898428 8.36425 0.542168 8.77987 0.485785L8.89541 0.478012C9.32649 0.478012 9.68275 0.798348 9.73913 1.21396L9.7469 1.32951Z" fill="black"/>
<path d="M11.4499 12.1151C11.4499 12.5462 11.1296 12.9024 10.7139 12.9588L10.5984 12.9666L1.51579 12.9666C1.04553 12.9666 0.664301 12.5854 0.664301 12.1151C0.664301 11.684 0.984637 11.3278 1.40025 11.2714L1.51579 11.2636L10.5984 11.2636C11.0687 11.2636 11.4499 11.6448 11.4499 12.1151Z" fill="black"/>
<path d="M20.5325 4.16782C20.5325 4.5989 20.2121 4.95516 19.7965 5.01154L19.681 5.01931L12.869 5.01931C12.3988 5.01931 12.0175 4.63809 12.0175 4.16782C12.0175 3.73674 12.3379 3.38048 12.7535 3.3241L12.869 3.31633L19.681 3.31633C20.1513 3.31633 20.5325 3.69755 20.5325 4.16782Z" fill="black"/>
<path d="M20.5325 12.1151C20.5325 12.5462 20.2121 12.9024 19.7965 12.9588L19.681 12.9666L15.4235 12.9657V14.9534C15.4235 15.3845 15.1032 15.7407 14.6876 15.7971L14.572 15.8049C14.141 15.8049 13.7847 15.4846 13.7283 15.069L13.7205 14.9534V9.27678C13.7205 8.80652 14.1018 8.42529 14.572 8.42529C15.0031 8.42529 15.3594 8.74563 15.4158 9.16124L15.4235 9.27678V11.2627L19.681 11.2636C20.1513 11.2636 20.5325 11.6448 20.5325 12.1151Z" fill="black"/>
</svg>
