<svg width="28" height="31" viewBox="0 0 28 31" fill="none" xmlns="http://www.w3.org/2000/svg">
<path fill-rule="evenodd" clip-rule="evenodd" d="M26.1093 9.26114L25.2353 7.73007C24.4958 6.43456 22.8571 5.98764 21.572 6.73099V6.73099C20.9603 7.09476 20.2303 7.19797 19.5431 7.01785C18.8559 6.83773 18.2679 6.38908 17.9088 5.77083C17.6777 5.37785 17.5536 4.93026 17.5489 4.47331V4.47331C17.5697 3.7407 17.2959 3.03077 16.7899 2.50525C16.2838 1.97972 15.5885 1.68335 14.8625 1.68366H13.1016C12.3903 1.68365 11.7083 1.96977 11.2066 2.47871C10.7048 2.98764 10.4246 3.67744 10.4281 4.39546V4.39546C10.407 5.87793 9.21039 7.06849 7.74168 7.06834C7.28901 7.06359 6.84562 6.93827 6.45633 6.70504V6.70504C5.17121 5.96169 3.53253 6.40861 2.79309 7.70412L1.85479 9.26114C1.11624 10.555 1.55295 12.2082 2.83165 12.9591V12.9591C3.66283 13.4435 4.17485 14.3387 4.17485 15.3076C4.17485 16.2764 3.66283 17.1716 2.83165 17.6561V17.6561C1.55457 18.4019 1.11739 20.051 1.85479 21.341V21.341L2.74168 22.885C3.08813 23.5161 3.66943 23.9818 4.35693 24.179C5.04443 24.3763 5.78146 24.2888 6.40492 23.936V23.936C7.01781 23.575 7.74817 23.4761 8.43365 23.6613C9.11913 23.8465 9.70294 24.3004 10.0553 24.9221C10.2863 25.3151 10.4105 25.7627 10.4152 26.2197V26.2197C10.4152 27.7173 11.6179 28.9315 13.1016 28.9315H14.8625C16.3411 28.9315 17.5418 27.7252 17.5489 26.2326V26.2326C17.5454 25.5124 17.8274 24.8206 18.3319 24.3113C18.8364 23.8019 19.5217 23.5174 20.2353 23.5208C20.6868 23.533 21.1284 23.6578 21.5206 23.8841V23.8841C22.8024 24.6297 24.44 24.1888 25.1838 22.898V22.898L26.1093 21.341C26.4675 20.7203 26.5658 19.9811 26.3825 19.287C26.1991 18.5929 25.7492 18.0013 25.1324 17.6431V17.6431C24.5156 17.2849 24.0657 16.6932 23.8824 15.9991C23.699 15.3051 23.7974 14.5658 24.1556 13.9452C24.3885 13.5346 24.7257 13.1942 25.1324 12.9591V12.9591C26.4035 12.2086 26.8392 10.5651 26.1093 9.27411V9.27411V9.26114Z" stroke="white" stroke-width="2.27065" stroke-linecap="round" stroke-linejoin="round"/>
<circle cx="13.9842" cy="15.3076" r="3.40598" stroke="white" stroke-width="2.27065" stroke-linecap="round" stroke-linejoin="round"/>
</svg>
