<svg width="23" height="23" viewBox="0 0 23 23" fill="none" xmlns="http://www.w3.org/2000/svg">
<circle cx="11.5168" cy="11.3649" r="10.7856" fill="#FF5D6D"/>
<path d="M16.8376 8.94172L16.4715 8.42728C16.3948 8.31975 16.2442 8.29359 16.1336 8.36916L15.5078 8.80076C14.6753 7.79368 13.4577 7.10922 12.0777 6.96099V6.54392H12.4334C12.5987 6.54392 12.733 6.41167 12.733 6.24891V5.73302C12.733 5.57026 12.5987 5.43802 12.4334 5.43802H10.6003C10.435 5.43802 10.3007 5.57026 10.3007 5.73302V6.24891C10.3007 6.41167 10.435 6.54392 10.6003 6.54392H10.956V6.96099C9.57455 7.10922 8.35839 7.79368 7.52597 8.80076L6.90018 8.36916C6.79096 8.29359 6.63894 8.31975 6.56219 8.42728L6.19616 8.94172C6.11942 9.04926 6.14598 9.19894 6.2552 9.27451L6.91494 9.72937C6.56662 10.4124 6.3718 11.1826 6.3718 11.9978C6.37032 14.7953 8.67424 17.0637 11.5169 17.0637C14.3595 17.0637 16.6634 14.7953 16.6634 11.9964C16.6634 11.1811 16.4671 10.4109 16.1203 9.72791L16.78 9.27306C16.8877 9.19894 16.9143 9.04926 16.8376 8.94172ZM14.361 14.7982C13.6009 15.5466 12.5913 15.9579 11.5169 15.9579C10.4424 15.9579 9.43139 15.5451 8.67276 14.7982C7.91266 14.0498 7.49498 13.0558 7.49498 11.9978C7.49498 10.9399 7.91414 9.94444 8.67276 9.19749C9.43286 8.44908 10.4424 8.03782 11.5169 8.03782C12.5913 8.03782 13.6023 8.45054 14.361 9.19749C15.1211 9.9459 15.5388 10.9399 15.5388 11.9978C15.5388 13.0558 15.1211 14.0498 14.361 14.7982Z" fill="white"/>
<path d="M11.5168 8.58844C9.60552 8.58844 8.0558 10.1143 8.0558 11.9962C8.0558 13.8781 9.60552 15.4055 11.5168 15.4055C12.4732 15.4055 13.3381 15.0233 13.9654 14.4071L11.5168 11.9962V8.58844Z" fill="white"/>
</svg>
