<svg width="26" height="25" viewBox="0 0 26 25" fill="none" xmlns="http://www.w3.org/2000/svg">
<path fill-rule="evenodd" clip-rule="evenodd" d="M12.9844 0.289001C16.3285 0.289001 19.0394 2.99995 19.0394 6.34407C19.0394 9.68819 16.3285 12.3991 12.9844 12.3991C9.64023 12.3991 6.92929 9.68819 6.92929 6.34407C6.92929 2.99995 9.64023 0.289001 12.9844 0.289001ZM12.9843 3.31635C11.3123 3.31635 9.95681 4.67182 9.95681 6.34388C9.95681 8.01595 11.3123 9.37142 12.9843 9.37142C14.6564 9.37142 16.0119 8.01595 16.0119 6.34388C16.0119 4.67182 14.6564 3.31635 12.9843 3.31635ZM12.9843 13.9129C17.0261 13.9129 25.0945 15.9262 25.0945 19.968V24.5093H0.874207V19.968C0.874207 15.9262 8.94258 13.9129 12.9843 13.9129ZM12.9843 16.7889C8.48844 16.7889 3.75035 18.999 3.75035 19.9678V21.633H22.2183V19.9678C22.2183 18.999 17.4802 16.7889 12.9843 16.7889Z" fill="white"/>
</svg>
