<svg xmlns="http://www.w3.org/2000/svg" width="20" height="20"><defs><clipPath id="a"><path d="M0 4a4 4 0 0 1 4-4h12a4 4 0 0 1 4 4v12a4 4 0 0 1-4 4H4a4 4 0 0 1-4-4z"/></clipPath></defs><path fill="#ffc200" d="M0 4a4 4 0 0 1 4-4h12a4 4 0 0 1 4 4v12a4 4 0 0 1-4 4H4a4 4 0 0 1-4-4z"/><g clip-path="url(#a)"><path fill="red" d="M14.562-.37h5.933v10.662l3.38-.234a8 8 0 0 1-6.31-13.538z"/></g><g clip-path="url(#a)"><path fill="#753ad7" d="M-6.608 27.906c3.791 0 0-4.394 8.592-5.29C10.576 21.722 15.24 12.1 11.45 12.1c-3.791 0-23.83 3.865-23.83 7.476 0 3.612 1.98 8.33 5.772 8.33z"/></g></svg>76 0 3.612 1.98 8.33 5.772 8.33z"/></g></g></g></svg>