<svg xmlns="http://www.w3.org/2000/svg" width="20" height="20" viewBox="0 0 20 20"><defs><clipPath id="2rl0a"><path d="M0 4a4 4 0 0 1 4-4h12a4 4 0 0 1 4 4v12a4 4 0 0 1-4 4H4a4 4 0 0 1-4-4z"/></clipPath></defs><g><g><g><path fill="#ffc200" d="M0 4a4 4 0 0 1 4-4h12a4 4 0 0 1 4 4v12a4 4 0 0 1-4 4H4a4 4 0 0 1-4-4z"/></g><g clip-path="url(#2rl0a)"><path fill="red" d="M12.428 19.244l2.85-2.852a3.457 3.457 0 0 1 4.888 0l2.85 2.852a3.44 3.44 0 0 1 0 4.865l-2.85 2.851a3.457 3.457 0 0 1-4.882.007l-.007-.007-2.85-2.851a3.44 3.44 0 0 1 0-4.865z"/></g><g clip-path="url(#2rl0a)"><path fill="#753ad7" d="M3.488 5.764l2.85-2.852a3.457 3.457 0 0 1 4.888 0l2.85 2.852a3.44 3.44 0 0 1 0 4.865l-2.85 2.851a3.457 3.457 0 0 1-4.882.007l-.007-.007-2.85-2.851a3.44 3.44 0 0 1 0-4.865z"/></g></g></g></svg>