<svg xmlns="http://www.w3.org/2000/svg" width="20" height="20" viewBox="0 0 20 20"><defs><clipPath id="7cvab"><path fill="#fff" d="M5.964 22.629c4.233 0 7.664-3.44 7.664-7.684 0-4.245-3.43-7.685-7.664-7.685-4.233 0-7.664 3.44-7.664 7.685 0 4.244 3.431 7.684 7.664 7.684z"/></clipPath><clipPath id="7cvaa"><path d="M0 4a4 4 0 0 1 4-4h12a4 4 0 0 1 4 4v12a4 4 0 0 1-4 4H4a4 4 0 0 1-4-4z"/></clipPath></defs><g><g><g><path fill="#ffc200" d="M0 4a4 4 0 0 1 4-4h12a4 4 0 0 1 4 4v12a4 4 0 0 1-4 4H4a4 4 0 0 1-4-4z"/></g><g clip-path="url(#7cvaa)"><g transform="rotate(-33 -5 -547.5)"><path fill="#753ad7" d="M16.059-2.728a4 4 0 0 1 3.995-3.996l9.629-.011a4 4 0 0 1 4.004 4.005l-.024 19.968a4 4 0 0 1-3.995 3.995l-9.628.011a4 4 0 0 1-4.005-4.004z"/></g><g><path fill="none" stroke="red" stroke-miterlimit="50" stroke-width="8" d="M5.964 22.629c4.233 0 7.664-3.44 7.664-7.684 0-4.245-3.43-7.685-7.664-7.685-4.233 0-7.664 3.44-7.664 7.685 0 4.244 3.431 7.684 7.664 7.684z" clip-path="url(&quot;#7cvab&quot;)"/></g></g></g></g></svg>