<svg xmlns="http://www.w3.org/2000/svg" width="20" height="20" viewBox="0 0 20 20"><defs><clipPath id="nfcua"><path d="M0 4a4 4 0 0 1 4-4h12a4 4 0 0 1 4 4v12a4 4 0 0 1-4 4H4a4 4 0 0 1-4-4z"/></clipPath></defs><g><g><g><path fill="#ffc200" d="M0 4a4 4 0 0 1 4-4h12a4 4 0 0 1 4 4v12a4 4 0 0 1-4 4H4a4 4 0 0 1-4-4z"/></g><g clip-path="url(#nfcua)"><path fill="red" d="M20.095 4.28v20H-5.1c2.146-6.866 6.258-10.844 12.335-11.934 6.077-1.09 10.364-3.779 12.86-8.066z"/></g><g clip-path="url(#nfcua)"><path fill="#753ad7" d="M10.892 15.695c8.713-2.414 9.203-11.315 9.203-11.315v19.9H-5.1s4.864-5.625 7.926-7.086c3.062-1.46 5.139-.688 8.066-1.499z"/></g></g></g></svg>