<svg width="512" height="374" viewBox="0 0 512 374" fill="none" xmlns="http://www.w3.org/2000/svg">
<path d="M506.75 201.741C505.296 200.955 470.824 182.663 444.776 196.167C444.08 196.528 443.398 196.907 442.732 197.303C442.918 193.892 443.014 190.457 443.014 187.001C443.014 185.458 442.995 183.919 442.957 182.384C444.886 182.508 446.979 182.586 449.189 182.586C461.442 182.586 477.264 180.171 488.307 169.714C508.39 150.696 502.725 114.506 502.474 112.975C501.811 108.93 498.746 105.698 494.742 104.823C493.224 104.492 457.36 96.9208 437.285 115.931C435.098 118.002 433.216 120.277 431.599 122.689C405.296 51.2189 336.463 0.0999985 255.901 0.0999985C175.411 0.0999985 106.628 51.1299 80.2738 122.502C78.6858 120.16 76.8448 117.949 74.7149 115.932C54.6399 96.9208 18.775 104.492 17.258 104.824C13.253 105.699 10.188 108.931 9.52598 112.976C9.27498 114.507 3.60999 150.697 23.693 169.715C34.7359 180.173 50.5569 182.587 62.8109 182.587C64.9459 182.587 66.9719 182.514 68.8459 182.397C68.8089 183.928 68.7889 185.462 68.7889 187.002C68.7889 190.418 68.8819 193.813 69.0639 197.185C68.4619 196.832 67.8479 196.493 67.2219 196.168C41.1739 182.665 6.70299 200.957 5.24799 201.742C1.639 203.69 -0.414999 207.644 0.0679998 211.718C0.261999 213.359 5.12599 252.053 31.1829 265.562C38.1659 269.182 45.7539 270.517 53.1489 270.517C65.7049 270.517 77.7038 266.668 85.2398 263.619C87.4768 268.572 89.9248 273.411 92.5708 278.124C86.9348 276.753 81.0058 276.239 74.9689 277.072C44.3789 281.292 25.8579 318.04 25.0839 319.602C23.264 323.279 23.874 327.695 26.6229 330.74C27.7159 331.95 52.0929 358.57 80.2628 358.57C82.2178 358.57 84.1928 358.442 86.1768 358.168C107.176 355.271 122.487 337.047 130.274 325.398C163.506 355.523 207.594 373.902 255.899 373.902C304.264 373.902 348.401 355.478 381.647 325.287C389.411 336.931 404.753 355.261 425.818 358.167C427.804 358.441 429.776 358.569 431.732 358.569C459.9 358.569 484.279 331.949 485.372 330.739C488.121 327.694 488.731 323.278 486.911 319.601C486.138 318.039 467.617 281.291 437.026 277.071C430.907 276.228 424.899 276.769 419.194 278.183C421.865 273.43 424.334 268.548 426.589 263.551C434.113 266.611 446.196 270.516 458.846 270.516C466.239 270.516 473.83 269.18 480.812 265.561C506.869 252.054 511.733 213.358 511.927 211.717C512.412 207.643 510.359 203.689 506.75 201.741V201.741ZM451.036 130.452C458.945 122.963 473.634 122.449 483.381 123.338C483.751 133.11 482.453 147.711 474.554 155.192C466.646 162.682 451.954 163.196 442.209 162.306C441.839 152.534 443.138 137.933 451.036 130.452V130.452ZM37.4459 155.192C29.5449 147.71 28.2479 133.102 28.6179 123.34C38.3719 122.446 53.0569 122.965 60.9639 130.452C68.8649 137.934 70.1619 152.542 69.7929 162.305C60.0369 163.194 45.3519 162.679 37.4459 155.192V155.192ZM40.3899 247.804C29.5429 242.182 23.73 226.737 21.249 216.381C31.1689 212.441 47.1669 208.298 58.0189 213.923C68.8499 219.538 74.6619 234.947 77.1489 245.303C68.1889 248.872 51.8639 253.753 40.3899 247.804ZM83.4458 338.353C70.1469 340.184 55.1799 329.923 46.6139 322.34C52.1549 313.713 63.6159 298.825 77.7039 296.882C90.9898 295.047 105.97 305.311 114.536 312.895C108.995 321.522 97.5338 336.41 83.4458 338.353ZM255.901 353.9C163.756 353.9 88.7898 279.029 88.7898 187.001C88.7898 94.9718 163.756 20.1 255.901 20.1C348.047 20.1 423.014 94.9708 423.014 187C423.014 279.028 348.047 353.9 255.901 353.9V353.9ZM434.296 296.882C447.605 298.718 459.245 312.686 465.425 322.305C456.858 329.898 441.859 340.185 428.554 338.353C415.245 336.517 403.605 322.549 397.425 312.93C405.992 305.337 420.99 295.046 434.296 296.882ZM471.61 247.804C460.772 253.423 444.798 249.296 434.883 245.365C437.118 235.995 442.515 219.867 453.981 213.923C464.82 208.304 480.794 212.43 490.708 216.363C488.472 225.733 483.076 241.861 471.61 247.804Z" fill="#5879E8"/>
<path d="M255.902 56.432C183.835 56.432 125.203 115.005 125.203 187.001C125.203 258.997 183.834 317.57 255.902 317.57C327.97 317.57 386.6 258.996 386.6 187C386.6 115.004 327.97 56.432 255.902 56.432V56.432ZM255.902 297.569C194.862 297.569 145.203 247.968 145.203 187C145.203 126.032 194.862 76.431 255.902 76.431C316.941 76.431 366.6 126.032 366.6 187C366.6 247.968 316.941 297.569 255.902 297.569Z" fill="#5879E8"/>
<path d="M274.42 163.459C274.42 157.936 269.943 153.459 264.42 153.459H247.383C241.86 153.459 237.383 157.936 237.383 163.459C237.383 168.479 241.081 172.634 245.902 173.35V200.651C241.082 201.367 237.383 205.522 237.383 210.542C237.383 216.065 241.86 220.542 247.383 220.542H264.42C269.943 220.542 274.42 216.065 274.42 210.542C274.42 205.523 270.722 201.368 265.902 200.651V173.35C270.722 172.634 274.42 168.479 274.42 163.459V163.459Z" fill="#5879E8"/>
</svg>
