<svg width="512" height="374" viewBox="0 0 512 374" fill="none" xmlns="http://www.w3.org/2000/svg">
<path d="M506.752 201.641C505.298 200.855 470.826 182.563 444.778 196.067C444.082 196.428 443.4 196.807 442.734 197.203C442.92 193.792 443.016 190.357 443.016 186.901C443.016 185.358 442.997 183.819 442.959 182.284C444.888 182.408 446.981 182.486 449.191 182.486C461.444 182.486 477.266 180.071 488.309 169.614C508.392 150.596 502.727 114.406 502.476 112.875C501.813 108.83 498.748 105.598 494.744 104.723C493.226 104.392 457.362 96.8208 437.287 115.831C435.1 117.902 433.218 120.177 431.601 122.589C405.298 51.1189 336.465 0 255.903 0C175.412 0 106.63 51.0299 80.2757 122.402C78.6877 120.06 76.8467 117.849 74.7167 115.832C54.6417 96.8208 18.7768 104.392 17.2598 104.724C13.2548 105.599 10.1898 108.831 9.52782 112.876C9.27682 114.407 3.61183 150.597 23.6948 169.615C34.7378 180.073 50.5587 182.487 62.8127 182.487C64.9477 182.487 66.9737 182.414 68.8477 182.297C68.8107 183.828 68.7907 185.362 68.7907 186.902C68.7907 190.318 68.8837 193.713 69.0657 197.085C68.4637 196.732 67.8497 196.393 67.2237 196.068C41.1758 182.565 6.70482 200.857 5.24983 201.642C1.64083 203.59 -0.413162 207.544 0.0698372 211.618C0.263837 213.259 5.12783 251.953 31.1848 265.462C38.1678 269.082 45.7557 270.417 53.1507 270.417C65.7067 270.417 77.7057 266.568 85.2417 263.519C87.4787 268.472 89.9267 273.311 92.5727 278.024C86.9367 276.653 81.0077 276.139 74.9707 276.972C44.3808 281.192 25.8598 317.94 25.0858 319.502C23.2658 323.179 23.8758 327.595 26.6248 330.64C27.7178 331.85 52.0947 358.47 80.2647 358.47C82.2197 358.47 84.1947 358.342 86.1787 358.068C107.178 355.171 122.489 336.947 130.276 325.298C163.508 355.423 207.595 373.802 255.901 373.802C304.266 373.802 348.403 355.378 381.649 325.187C389.413 336.831 404.755 355.161 425.82 358.067C427.806 358.341 429.778 358.469 431.734 358.469C459.902 358.469 484.281 331.849 485.374 330.639C488.123 327.594 488.733 323.178 486.913 319.501C486.14 317.939 467.619 281.191 437.028 276.971C430.909 276.128 424.901 276.669 419.196 278.083C421.867 273.33 424.336 268.448 426.591 263.451C434.115 266.511 446.198 270.416 458.848 270.416C466.241 270.416 473.832 269.08 480.814 265.461C506.871 251.954 511.735 213.258 511.929 211.617C512.414 207.543 510.361 203.589 506.752 201.641V201.641ZM451.038 130.352C458.947 122.863 473.636 122.349 483.383 123.238C483.753 133.01 482.455 147.611 474.556 155.092C466.648 162.582 451.956 163.096 442.211 162.206C441.841 152.434 443.14 137.833 451.038 130.352V130.352ZM37.4478 155.092C29.5468 147.61 28.2498 133.002 28.6198 123.24C38.3738 122.346 53.0587 122.865 60.9657 130.352C68.8667 137.834 70.1637 152.442 69.7947 162.205C60.0387 163.094 45.3537 162.579 37.4478 155.092V155.092ZM40.3918 247.704C29.5448 242.082 23.7318 226.637 21.2508 216.281C31.1708 212.341 47.1687 208.198 58.0207 213.823C68.8517 219.438 74.6637 234.847 77.1507 245.203C68.1907 248.772 51.8657 253.653 40.3918 247.704ZM83.4477 338.253C70.1487 340.084 55.1817 329.823 46.6157 322.24C52.1567 313.613 63.6177 298.725 77.7057 296.782C90.9917 294.947 105.972 305.211 114.538 312.795C108.997 321.422 97.5356 336.31 83.4477 338.253ZM255.903 353.8C163.757 353.8 88.7917 278.929 88.7917 186.901C88.7917 94.8718 163.757 20 255.903 20C348.049 20 423.016 94.8708 423.016 186.9C423.016 278.928 348.049 353.8 255.903 353.8V353.8ZM434.298 296.782C447.607 298.618 459.247 312.586 465.427 322.205C456.86 329.798 441.861 340.085 428.556 338.253C415.247 336.417 403.607 322.449 397.427 312.83C405.994 305.237 420.992 294.946 434.298 296.782ZM471.612 247.704C460.774 253.323 444.8 249.196 434.885 245.265C437.12 235.895 442.517 219.767 453.983 213.823C464.822 208.204 480.796 212.33 490.71 216.263C488.474 225.633 483.078 241.761 471.612 247.704Z" fill="#5879E8"/>
<path d="M255.904 56.332C183.837 56.332 125.205 114.905 125.205 186.901C125.205 258.897 183.836 317.47 255.904 317.47C327.972 317.47 386.602 258.896 386.602 186.9C386.602 114.904 327.972 56.332 255.904 56.332V56.332ZM255.904 297.469C194.864 297.469 145.205 247.868 145.205 186.9C145.205 125.932 194.864 76.331 255.904 76.331C316.943 76.331 366.602 125.932 366.602 186.9C366.602 247.868 316.943 297.469 255.904 297.469Z" fill="#5879E8"/>
<path d="M228.037 163.359C228.037 157.836 223.56 153.359 218.037 153.359H201C195.477 153.359 191 157.836 191 163.359C191 168.379 194.698 172.534 199.519 173.25V200.551C194.699 201.267 191 205.422 191 210.442C191 215.965 195.477 220.442 201 220.442H218.037C223.56 220.442 228.037 215.965 228.037 210.442C228.037 205.423 224.339 201.268 219.519 200.551V173.25C224.339 172.534 228.037 168.379 228.037 163.359V163.359Z" fill="#5879E8"/>
<path d="M274.037 163C274.037 157.477 269.56 153 264.037 153H247C241.477 153 237 157.477 237 163C237 168.02 240.698 172.175 245.519 172.891V200.192C240.699 200.908 237 205.063 237 210.083C237 215.606 241.477 220.083 247 220.083H264.037C269.56 220.083 274.037 215.606 274.037 210.083C274.037 205.064 270.339 200.909 265.519 200.192V172.891C270.339 172.175 274.037 168.02 274.037 163V163Z" fill="#5879E8"/>
<path d="M320.037 163C320.037 157.477 315.56 153 310.037 153H293C287.477 153 283 157.477 283 163C283 168.02 286.698 172.175 291.519 172.891V200.192C286.699 200.908 283 205.063 283 210.083C283 215.606 287.477 220.083 293 220.083H310.037C315.56 220.083 320.037 215.606 320.037 210.083C320.037 205.064 316.339 200.909 311.519 200.192V172.891C316.339 172.175 320.037 168.02 320.037 163V163Z" fill="#5879E8"/>
</svg>
