<svg width="89" height="89" viewBox="0 0 89 89" fill="none" xmlns="http://www.w3.org/2000/svg">
<path d="M84.3125 0.421875H4.6875C3.55665 0.42338 2.47254 0.873276 1.67291 1.67291C0.873276 2.47254 0.42338 3.55665 0.421875 4.6875V84.3125C0.42338 85.4434 0.873276 86.5275 1.67291 87.3271C2.47254 88.1267 3.55665 88.5766 4.6875 88.5781H84.3125C85.4434 88.5766 86.5275 88.1267 87.3271 87.3271C88.1267 86.5275 88.5766 85.4434 88.5781 84.3125V4.6875C88.5766 3.55665 88.1267 2.47254 87.3271 1.67291C86.5275 0.873276 85.4434 0.42338 84.3125 0.421875V0.421875ZM85.7344 84.3125C85.7339 84.6894 85.5839 85.0508 85.3173 85.3173C85.0508 85.5839 84.6894 85.7339 84.3125 85.7344H4.6875C4.31055 85.7339 3.94919 85.5839 3.68265 85.3173C3.41611 85.0508 3.26614 84.6894 3.26562 84.3125V11.7969H85.7344V84.3125ZM85.7344 8.95312H3.26562V4.6875C3.26614 4.31055 3.41611 3.94919 3.68265 3.68265C3.94919 3.41611 4.31055 3.26614 4.6875 3.26562H84.3125C84.6894 3.26614 85.0508 3.41611 85.3173 3.68265C85.5839 3.94919 85.7339 4.31055 85.7344 4.6875V8.95312Z" fill="#5879E8"/>
<path d="M7.53125 7.53125C8.31653 7.53125 8.95312 6.89465 8.95312 6.10938C8.95312 5.3241 8.31653 4.6875 7.53125 4.6875C6.74597 4.6875 6.10938 5.3241 6.10938 6.10938C6.10938 6.89465 6.74597 7.53125 7.53125 7.53125Z" fill="#5879E8"/>
<path d="M11.7969 7.53125C12.5822 7.53125 13.2188 6.89465 13.2188 6.10938C13.2188 5.3241 12.5822 4.6875 11.7969 4.6875C11.0116 4.6875 10.375 5.3241 10.375 6.10938C10.375 6.89465 11.0116 7.53125 11.7969 7.53125Z" fill="#5879E8"/>
<path d="M16.0625 7.53125C16.8478 7.53125 17.4844 6.89465 17.4844 6.10938C17.4844 5.3241 16.8478 4.6875 16.0625 4.6875C15.2772 4.6875 14.6406 5.3241 14.6406 6.10938C14.6406 6.89465 15.2772 7.53125 16.0625 7.53125Z" fill="#5879E8"/>
<path d="M81.1115 73.0673L66.0308 57.9865C65.7637 57.7201 65.4019 57.5706 65.0248 57.5706C64.6476 57.5706 64.2858 57.7201 64.0188 57.9865L61.6603 55.6279C63.3466 52.885 64.2895 49.7502 64.3961 46.5321C64.5027 43.314 63.7693 40.1236 62.2681 37.2751L78.625 20.9164V23.1719C78.625 23.549 78.7748 23.9106 79.0415 24.1773C79.3081 24.4439 79.6698 24.5938 80.0469 24.5938C80.424 24.5938 80.7857 24.4439 81.0523 24.1773C81.319 23.9106 81.4688 23.549 81.4688 23.1719V17.4844C81.4688 17.1073 81.319 16.7456 81.0523 16.479C80.7857 16.2123 80.424 16.0625 80.0469 16.0625H74.3594C73.9823 16.0625 73.6206 16.2123 73.354 16.479C73.0873 16.7456 72.9375 17.1073 72.9375 17.4844C72.9375 17.8615 73.0873 18.2231 73.354 18.4898C73.6206 18.7564 73.9823 18.9063 74.3594 18.9063H76.6148L60.7023 34.8188C60.1791 34.1238 59.6077 33.4663 58.9925 32.8513C55.5382 29.4233 50.8714 27.4958 46.0049 27.4871C41.1384 27.4784 36.4648 29.3893 32.9983 32.805C29.5319 36.2206 27.5523 40.8655 27.4891 45.7317C27.426 50.5978 29.2844 55.2925 32.6611 58.797C32.4573 58.8673 32.272 58.9827 32.119 59.1347L28.8594 62.3961L25.5997 59.1347C25.3327 58.8683 24.9709 58.7187 24.5937 58.7187C24.2166 58.7187 23.8548 58.8683 23.5878 59.1347L11.5018 71.2206C11.3697 71.3527 11.2649 71.5095 11.1934 71.6821C11.1219 71.8547 11.0851 72.0397 11.0851 72.2266C11.0851 72.4134 11.1219 72.5984 11.1934 72.771C11.2649 72.9436 11.3697 73.1004 11.5018 73.2325C11.6339 73.3647 11.7908 73.4694 11.9634 73.5409C12.136 73.6124 12.321 73.6492 12.5078 73.6492C12.6946 73.6492 12.8796 73.6124 13.0522 73.5409C13.2248 73.4694 13.3817 73.3647 13.5138 73.2325L24.5937 62.1508L27.8534 65.4122C28.1204 65.6786 28.4822 65.8281 28.8594 65.8281C29.2365 65.8281 29.5983 65.6786 29.8654 65.4122L34.131 61.1466C34.3179 60.9588 34.4484 60.7223 34.5078 60.4641C37.4843 62.7973 41.1042 64.1628 44.8802 64.3766C48.6561 64.5905 52.407 63.6425 55.628 61.6603L57.9865 64.0188C57.7201 64.2858 57.5706 64.6476 57.5706 65.0248C57.5706 65.4019 57.7201 65.7637 57.9865 66.0307L73.069 81.1115C73.8695 81.9105 74.9542 82.3592 76.0852 82.3592C77.2161 82.3592 78.3009 81.9105 79.1013 81.1115L81.1115 79.1013C81.9105 78.3005 82.3592 77.2155 82.3592 76.0843C82.3592 74.9531 81.9105 73.8681 81.1115 73.0673V73.0673ZM56.9805 56.9805C54.7147 59.2459 51.8077 60.7605 48.6528 61.3196C45.498 61.8787 42.2475 61.4551 39.3412 60.1063C36.435 58.7575 34.0131 56.5486 32.4034 53.7783C30.7937 51.008 30.0738 47.81 30.3411 44.6172C30.6085 41.4244 31.8501 38.3907 33.898 35.9266C35.946 33.4625 38.7014 31.687 41.7915 30.8403C44.8816 29.9935 48.1572 30.1164 51.1752 31.1922C54.1932 32.2681 56.8078 34.2451 58.6654 36.8556L57.6435 37.8776C56.5247 36.2472 55.0782 34.8681 53.3964 33.8283C51.7145 32.7886 49.8343 32.1111 47.8757 31.8391C45.9172 31.5671 43.9235 31.7066 42.022 32.2488C40.1204 32.7909 38.3529 33.7237 36.8322 34.9875C35.3116 36.2514 34.0712 37.8185 33.1905 39.5889C32.3098 41.3592 31.808 43.2937 31.7172 45.269C31.6264 47.2442 31.9486 49.2166 32.6632 51.0603C33.3778 52.9039 34.4691 54.5783 35.8674 55.9763C38.1931 58.3025 41.2533 59.7503 44.5267 60.0731C47.8002 60.396 51.0843 59.5738 53.8195 57.7467C56.5547 55.9196 58.5718 53.2006 59.527 50.053C60.4823 46.9055 60.3166 43.5241 59.0582 40.485L60.1424 39.399C61.4712 42.3023 61.8805 45.5425 61.3153 48.685C60.7502 51.8275 59.2376 54.7221 56.9805 56.9805V56.9805ZM39.9962 55.2814L50.1875 45.0883L51.3143 46.2169C51.5814 46.4833 51.9432 46.6328 52.3203 46.6328C52.6975 46.6328 53.0593 46.4833 53.3263 46.2169L56.8312 42.7102C57.4871 44.9372 57.4457 47.3116 56.7127 49.5144C55.9796 51.7173 54.59 53.643 52.7304 55.0329C50.8709 56.4228 48.6305 57.2103 46.3103 57.2897C43.9901 57.3691 41.7011 56.7365 39.7509 55.4769C39.8393 55.4205 39.9215 55.3549 39.9962 55.2814V55.2814ZM37.9843 53.2694C37.8484 53.4054 37.7413 53.5674 37.6697 53.7457C36.5744 52.5912 35.7336 51.2197 35.2017 49.7198C34.6698 48.2199 34.4586 46.625 34.5817 45.0384C34.7049 43.4518 35.1597 41.9086 35.9167 40.5088C36.6737 39.1089 37.716 37.8836 38.9764 36.9119C40.2367 35.9402 41.6869 35.2438 43.2333 34.8678C44.7796 34.4918 46.3877 34.4446 47.9535 34.7291C49.5193 35.0136 51.0079 35.6235 52.3231 36.5195C53.6384 37.4155 54.7509 38.5775 55.5889 39.9305L52.3203 43.2008L51.1935 42.0721C50.9264 41.8058 50.5647 41.6562 50.1875 41.6562C49.8103 41.6562 49.4486 41.8058 49.1815 42.0721L37.9843 53.2694ZM57.9865 59.9984L59.9984 57.9865L62.0086 59.9984L59.9984 62.0086L57.9865 59.9984ZM79.1013 77.0894L77.0894 79.1013C76.8225 79.3673 76.4611 79.5166 76.0843 79.5166C75.7075 79.5166 75.3461 79.3673 75.0792 79.1013L61.0026 65.0248L65.0248 61.0026L79.1013 75.0792C79.3669 75.3463 79.5159 75.7076 79.5159 76.0843C79.5159 76.4609 79.3669 76.8223 79.1013 77.0894V77.0894Z" fill="#5879E8"/>
<path d="M7.94768 74.7758L6.5258 76.1977C6.25914 76.4643 6.10934 76.826 6.10934 77.2031C6.10934 77.5802 6.25914 77.9419 6.5258 78.2086C6.79247 78.4752 7.15413 78.625 7.53125 78.625C7.90836 78.625 8.27003 78.4752 8.53669 78.2086L9.95857 76.7867C10.0906 76.6547 10.1953 76.4979 10.2668 76.3254C10.3383 76.1529 10.375 75.968 10.375 75.7813C10.375 75.5945 10.3383 75.4096 10.2668 75.2371C10.1953 75.0646 10.0906 74.9078 9.95857 74.7758C9.82653 74.6438 9.66978 74.539 9.49727 74.4676C9.32475 74.3961 9.13985 74.3593 8.95312 74.3593C8.7664 74.3593 8.5815 74.3961 8.40898 74.4676C8.23647 74.539 8.07972 74.6438 7.94768 74.7758V74.7758Z" fill="#5879E8"/>
<path d="M15.1838 41.6562L17.6346 46.5578C17.7527 46.794 17.9342 46.9926 18.1588 47.1314C18.3834 47.2702 18.6422 47.3437 18.9062 47.3438H24.5938C24.9709 47.3438 25.3325 47.1939 25.5992 46.9273C25.8658 46.6606 26.0156 46.299 26.0156 45.9219C26.0156 45.5448 25.8658 45.1831 25.5992 44.9165C25.3325 44.6498 24.9709 44.5 24.5938 44.5H19.785L17.3342 39.5984C17.2161 39.3623 17.0346 39.1637 16.81 39.0249C16.5854 38.886 16.3265 38.8125 16.0625 38.8125H6.10938C5.73227 38.8125 5.37061 38.9623 5.10396 39.229C4.8373 39.4956 4.6875 39.8573 4.6875 40.2344C4.6875 40.6115 4.8373 40.9731 5.10396 41.2398C5.37061 41.5064 5.73227 41.6562 6.10938 41.6562H15.1838Z" fill="#5879E8"/>
<path d="M45.9219 71.5156C45.5448 71.5156 45.1831 71.6654 44.9165 71.9321C44.6498 72.1987 44.5 72.5604 44.5 72.9375V81.4688C44.5 81.8459 44.6498 82.2075 44.9165 82.4742C45.1831 82.7408 45.5448 82.8906 45.9219 82.8906C46.299 82.8906 46.6606 82.7408 46.9273 82.4742C47.1939 82.2075 47.3438 81.8459 47.3438 81.4688V72.9375C47.3438 72.5604 47.1939 72.1987 46.9273 71.9321C46.6606 71.6654 46.299 71.5156 45.9219 71.5156Z" fill="#5879E8"/>
<path d="M6.10938 37.3906H10.375C10.7521 37.3906 11.1138 37.2408 11.3804 36.9742C11.6471 36.7075 11.7969 36.3459 11.7969 35.9688V14.6406C11.7969 14.2635 11.6471 13.9019 11.3804 13.6352C11.1138 13.3686 10.7521 13.2188 10.375 13.2188H6.10938C5.73227 13.2188 5.37061 13.3686 5.10396 13.6352C4.8373 13.9019 4.6875 14.2635 4.6875 14.6406V35.9688C4.6875 36.3459 4.8373 36.7075 5.10396 36.9742C5.37061 37.2408 5.73227 37.3906 6.10938 37.3906ZM7.53125 16.0625H8.95312V34.5469H7.53125V16.0625Z" fill="#5879E8"/>
<path d="M14.6406 37.3906H18.9062C19.2834 37.3906 19.645 37.2408 19.9117 36.9742C20.1783 36.7075 20.3281 36.3459 20.3281 35.9688V23.1719C20.3281 22.7948 20.1783 22.4331 19.9117 22.1665C19.645 21.8998 19.2834 21.75 18.9062 21.75H14.6406C14.2635 21.75 13.9019 21.8998 13.6352 22.1665C13.3686 22.4331 13.2188 22.7948 13.2188 23.1719V35.9688C13.2188 36.3459 13.3686 36.7075 13.6352 36.9742C13.9019 37.2408 14.2635 37.3906 14.6406 37.3906ZM16.0625 24.5938H17.4844V34.5469H16.0625V24.5938Z" fill="#5879E8"/>
<path d="M14.6406 16.0625H27.4375C27.8146 16.0625 28.1763 15.9127 28.4429 15.646C28.7096 15.3794 28.8594 15.0177 28.8594 14.6406C28.8594 14.2635 28.7096 13.9019 28.4429 13.6352C28.1763 13.3686 27.8146 13.2188 27.4375 13.2188H14.6406C14.2635 13.2188 13.9019 13.3686 13.6352 13.6352C13.3686 13.9019 13.2188 14.2635 13.2188 14.6406C13.2188 15.0177 13.3686 15.3794 13.6352 15.646C13.9019 15.9127 14.2635 16.0625 14.6406 16.0625V16.0625Z" fill="#5879E8"/>
<path d="M14.6406 20.3281H21.75C22.1271 20.3281 22.4888 20.1783 22.7554 19.9117C23.0221 19.645 23.1719 19.2834 23.1719 18.9062C23.1719 18.5291 23.0221 18.1675 22.7554 17.9008C22.4888 17.6342 22.1271 17.4844 21.75 17.4844H14.6406C14.2635 17.4844 13.9019 17.6342 13.6352 17.9008C13.3686 18.1675 13.2188 18.5291 13.2188 18.9062C13.2188 19.2834 13.3686 19.645 13.6352 19.9117C13.9019 20.1783 14.2635 20.3281 14.6406 20.3281V20.3281Z" fill="#5879E8"/>
<path d="M81.4688 27.4375H75.7812C75.4041 27.4375 75.0425 27.5873 74.7758 27.854C74.5092 28.1206 74.3594 28.4823 74.3594 28.8594V60.1406C74.3594 60.5177 74.5092 60.8794 74.7758 61.146C75.0425 61.4127 75.4041 61.5625 75.7812 61.5625H81.4688C81.8459 61.5625 82.2075 61.4127 82.4742 61.146C82.7408 60.8794 82.8906 60.5177 82.8906 60.1406V28.8594C82.8906 28.4823 82.7408 28.1206 82.4742 27.854C82.2075 27.5873 81.8459 27.4375 81.4688 27.4375ZM80.0469 31.7031C79.6698 31.7031 79.3081 31.8529 79.0415 32.1196C78.7748 32.3862 78.625 32.7479 78.625 33.125C78.625 33.5021 78.7748 33.8638 79.0415 34.1304C79.3081 34.3971 79.6698 34.5469 80.0469 34.5469V37.3906C79.6698 37.3906 79.3081 37.5404 79.0415 37.8071C78.7748 38.0737 78.625 38.4354 78.625 38.8125C78.625 39.1896 78.7748 39.5513 79.0415 39.8179C79.3081 40.0846 79.6698 40.2344 80.0469 40.2344V43.0781C79.6698 43.0781 79.3081 43.2279 79.0415 43.4946C78.7748 43.7612 78.625 44.1229 78.625 44.5C78.625 44.8771 78.7748 45.2388 79.0415 45.5054C79.3081 45.7721 79.6698 45.9219 80.0469 45.9219V48.7656C79.6698 48.7656 79.3081 48.9154 79.0415 49.1821C78.7748 49.4487 78.625 49.8104 78.625 50.1875C78.625 50.5646 78.7748 50.9263 79.0415 51.1929C79.3081 51.4596 79.6698 51.6094 80.0469 51.6094V54.4531C79.6698 54.4531 79.3081 54.6029 79.0415 54.8696C78.7748 55.1362 78.625 55.4979 78.625 55.875C78.625 56.2521 78.7748 56.6138 79.0415 56.8804C79.3081 57.1471 79.6698 57.2969 80.0469 57.2969V58.7188H77.2031V30.2812H80.0469V31.7031Z" fill="#5879E8"/>
</svg>
