<svg width="90" height="90" viewBox="0 0 90 90" fill="none" xmlns="http://www.w3.org/2000/svg">
<g clip-path="url(#clip0)">
<path d="M77.3441 83.7742C73.3344 63.6401 73.5077 64.4973 73.488 64.4146C72.9623 61.8696 71.4839 59.7565 69.0873 58.4327C67.9664 57.812 67.32 57.7154 66.7549 57.5308L56.904 54.1092L53.6209 51.8575V49.3034C58.4218 46.4513 61.4783 41.5395 62.0371 36.2242C66.049 36.4102 68.8451 32.5757 67.1631 29.2186V18.4714C67.1631 10.6994 62.9362 7.99556 61.6448 7.35115C55.326 -0.192137 43.5267 -2.12678 34.5819 2.46303L34.5647 2.47165C34.4112 2.56182 32.5678 3.41471 30.2978 5.31279C29.747 5.78916 29.6867 6.62166 30.1629 7.17238C30.64 7.72381 31.4727 7.78269 32.0225 7.3072C40.7827 -0.0485244 53.7853 1.84165 59.7963 9.25345C59.9443 9.43574 60.1244 9.57021 60.3443 9.65247C60.5152 9.72103 64.5265 11.4092 64.5265 18.4714V26.7918C63.7951 26.4821 62.9932 26.3234 62.1385 26.3473V22.0352C62.1385 20.9413 61.3145 20.0373 60.2218 19.9318C58.0063 19.7179 56.7649 18.2744 56.1135 17.1014C55.2982 15.6331 53.352 15.2813 52.0758 16.3719C46.1975 21.3966 39.4292 21.6518 34.7865 20.9823C31.2795 20.476 28.0177 22.8647 27.4501 26.349C26.5965 26.3121 25.7531 26.4633 24.9778 26.7916C24.9829 22.2528 24.4592 17.3144 28.1713 11.6555C28.5697 11.0459 28.3983 10.229 27.7887 9.83071C27.1792 9.43222 26.3622 9.60325 25.9639 10.2132C20.9119 17.9543 22.7195 24.8906 22.3409 29.2185C20.6597 32.5743 23.4522 36.4102 27.4666 36.2239C28.1219 42.484 31.9782 46.0852 32.0698 46.242L32.07 46.2421C32.7545 46.8983 33.9837 48.2691 36.3798 49.5897V51.8569L33.0971 54.1085C20.2494 58.5714 21.5534 58.0298 20.5096 58.6676C18.5368 59.8827 17.1694 61.7413 16.5995 64.0296C16.4872 64.4819 16.6737 63.6272 12.6566 83.7737C12.5757 84.1806 12.5332 84.9739 12.6058 85.6466C12.9035 88.4132 14.8656 89.9998 17.9889 89.9998H54.2145C54.9428 89.9998 55.5329 89.4097 55.5329 88.6815C55.5329 87.9532 54.9428 87.3631 54.2145 87.3631H27.2599V75.2838C27.2599 74.5555 26.6696 73.9654 25.9416 73.9654C25.2135 73.9654 24.6232 74.5555 24.6232 75.2838V87.3633H17.9885C15.9215 87.3633 14.9509 86.4766 15.25 84.2507C18.8576 66.6227 18.8653 65.2003 19.4554 63.7559C19.5583 63.6119 20.1267 61.5778 22.9139 60.3946C23.202 60.2765 23.0224 60.3556 24.0134 60.0536C24.0746 60.036 23.7724 60.1387 28.5071 58.4948L31.665 64.3244C32.0118 64.9646 32.8116 65.2028 33.4522 64.8556C34.0923 64.5088 34.3302 63.7086 33.9834 63.0684L31.0309 57.618L33.05 56.9166C34.0233 58.7135 42.6409 74.6211 43.5777 76.3501C44.1558 77.4209 45.6278 77.4744 46.306 76.5392C46.4288 76.3699 45.7269 77.6299 56.9338 56.9106L58.9525 57.6118L48.28 77.3536C46.873 79.9561 43.1326 79.9562 41.7239 77.3564L36.914 68.4774C36.567 67.8372 35.7672 67.5988 35.1268 67.9462C34.4866 68.2932 34.2488 69.0931 34.5956 69.7333L39.4057 78.6126C41.8116 83.053 48.1984 83.0489 50.5994 78.6076L61.4759 58.4885C66.2 60.1287 65.9229 60.035 65.9841 60.0526C66.9135 60.3357 66.8101 60.2812 67.0838 60.3932C68.0919 60.8227 68.6936 61.3182 68.676 61.3052C69.7098 62.1389 70.4226 63.1022 70.8033 64.5206C70.8657 64.7456 74.7795 84.1504 74.7955 84.8051C74.8347 86.4603 74.1199 87.3633 72.0127 87.3633H65.3775V75.2838C65.3775 74.5555 64.7874 73.9654 64.0591 73.9654C63.3309 73.9654 62.7408 74.5555 62.7408 75.2838V87.3633H60.3661C59.6379 87.3633 59.0478 87.9534 59.0478 88.6816C59.0478 89.4099 59.6379 90 60.3661 90H72.0122C75.1354 90 77.0973 88.4134 77.3947 85.6484C77.4666 84.9887 77.4244 84.1785 77.3441 83.7742ZM62.1384 28.9849C63.6587 28.9045 65.0194 29.9286 65.0194 31.2871C65.0194 32.659 63.6439 33.6691 62.1384 33.5894V28.9849ZM27.3657 33.5894C25.8456 33.6699 24.4847 32.6457 24.4847 31.2872C24.4847 29.9153 25.8602 28.9052 27.3657 28.9849V33.5894V33.5894ZM34.4096 23.5919C39.5918 24.3398 47.1604 24.0423 53.7886 18.3761L53.8081 18.3812C55.0815 20.6743 57.0906 22.1218 59.5017 22.4973V27.1659L57.9973 28.0537C57.3779 27.1611 56.3471 26.5744 55.181 26.5744H49.148C47.725 26.5744 46.5027 27.4464 45.985 28.6837H43.5191C43.0015 27.4464 41.7789 26.5744 40.3559 26.5744H34.323C33.1567 26.5744 32.1257 27.1611 31.5066 28.0537L30.0091 27.1697C30.1389 24.9161 32.1762 23.2688 34.4096 23.5919ZM55.972 30.0021V32.6276C55.972 33.7712 55.0416 34.7014 53.8979 34.7014H50.4307C49.2872 34.7014 48.3568 33.771 48.3568 32.6276V30.0021H48.357C48.357 29.5734 48.7193 29.2111 49.148 29.2111H55.181C55.6097 29.2111 55.972 29.5734 55.972 30.0021ZM41.147 30.0021V32.6276C41.147 33.7712 40.2167 34.7014 39.0731 34.7014H35.6058C34.4622 34.7014 33.532 33.771 33.532 32.6276V30.0021C33.532 29.5734 33.8942 29.2111 34.323 29.2111H40.3559C40.7847 29.2111 41.147 29.5734 41.147 30.0021ZM33.5578 43.9535C29.2911 38.9803 30.1135 34.1514 30.0025 30.2276L30.8956 30.7548V32.6276C30.8956 35.2249 33.0087 37.3381 35.606 37.3381H39.0733C41.6706 37.3381 43.7837 35.2251 43.7837 32.6276V31.3203H45.721V32.6276C45.721 35.2249 47.834 37.3381 50.4314 37.3381H53.8986C56.496 37.3381 58.6092 35.2251 58.6092 32.6276V30.7548L59.5024 30.2276V34.3499C59.5024 42.1911 53.2962 49.004 44.7526 49.0979C44.7348 49.0977 44.5573 49.0965 44.5749 49.0967C42.2959 49.0736 40.5446 48.4895 40.7218 48.5393C38.1348 47.8217 35.6675 46.3406 33.5578 43.9535ZM45.0004 58.7026L39.0165 52.044V50.7653C41.7683 51.7211 44.6221 51.9408 47.2794 51.5534C48.0209 51.4456 48.8189 51.269 49.2858 51.1371C49.3967 51.1011 50.0332 50.9489 50.9844 50.5829V52.0442L45.0004 58.7026ZM46.4853 63.4008L45.9027 64.6004H44.0983L43.5156 63.4008L45.0004 62.3103L46.4853 63.4008ZM41.5261 67.0282L40.6866 65.4786L41.3553 64.9876L41.855 66.0166L41.5261 67.0282ZM39.428 63.1319L35.4225 55.7224L37.4941 54.2938L43.0475 60.4736C42.7267 60.7087 39.743 62.9004 39.428 63.1319ZM45.0001 73.4407L43.2588 70.2264L44.2309 67.2369H45.7707L46.741 70.2211C46.1891 71.2414 45.6767 72.1892 45.0001 73.4407ZM48.4719 67.0186L48.146 66.0163L48.6458 64.9872L49.3072 65.4731L48.4719 67.0186ZM50.5732 63.1319C50.2306 62.8803 47.3666 60.7768 46.9539 60.4736L52.5073 54.2938L54.5789 55.7224C53.2484 58.1829 51.4365 61.5346 50.5732 63.1319Z" fill="#5879E8"/>
</g>
<defs>
<clipPath id="clip0">
<rect width="90" height="90" fill="white"/>
</clipPath>
</defs>
</svg>
