<svg width="90" height="90" viewBox="0 0 90 90" fill="none" xmlns="http://www.w3.org/2000/svg">
<path d="M77.8374 41.572C80.4729 39.72 82.218 36.6393 82.218 33.1668C82.218 27.4861 77.6237 22.8918 71.943 22.8918C66.2624 22.8918 61.668 27.4861 61.668 33.1668C61.668 36.6393 63.3953 39.72 66.0487 41.572C63.7871 42.3556 61.7214 43.5665 59.9763 45.1336C57.5722 43.0857 54.7408 41.5186 51.6423 40.5926C55.3997 38.3132 57.9284 34.164 57.9284 29.445C57.9284 22.2507 52.1053 16.4276 44.911 16.4276C37.7167 16.4276 31.8936 22.2685 31.8936 29.445C31.8936 34.164 34.4044 38.3132 38.1797 40.5926C35.1167 41.5186 32.3209 43.0679 29.9347 45.0801C28.1896 43.5487 26.1595 42.3556 23.9335 41.5898C26.5691 39.7378 28.3142 36.6571 28.3142 33.1846C28.3142 27.504 23.7198 22.9096 18.0392 22.9096C12.3585 22.9096 7.76415 27.504 7.76415 33.1846C7.76415 36.6571 9.49149 39.7378 12.1448 41.5898C5.07519 44.0295 0 50.743 0 58.6318V59.8071C0 59.8427 0.0356154 59.8783 0.0712307 59.8783H21.85C21.7254 60.8577 21.6541 61.8728 21.6541 62.8878V64.0987C21.6541 69.3342 25.8924 73.5724 31.1278 73.5724H58.7297C63.9652 73.5724 68.2034 69.3342 68.2034 64.0987V62.8878C68.2034 61.8728 68.1322 60.8577 68.0075 59.8783H89.9288C89.9644 59.8783 90 59.8427 90 59.8071V58.6318C89.9644 50.7252 84.907 44.0117 77.8374 41.572ZM64.5172 33.149C64.5172 29.0532 67.8473 25.7232 71.943 25.7232C76.0388 25.7232 79.3688 29.0532 79.3688 33.149C79.3688 37.1913 76.11 40.4858 72.0855 40.5748C72.0321 40.5748 71.9964 40.5748 71.943 40.5748C71.8896 40.5748 71.854 40.5748 71.8006 40.5748C67.7582 40.5036 64.5172 37.2091 64.5172 33.149ZM34.7072 29.445C34.7072 23.8356 39.2659 19.2768 44.8753 19.2768C50.4848 19.2768 55.0435 23.8356 55.0435 29.445C55.0435 34.8585 50.7875 39.2926 45.463 39.5954C45.2671 39.5954 45.0712 39.5954 44.8753 39.5954C44.6795 39.5954 44.4836 39.5954 44.2877 39.5954C38.9632 39.2926 34.7072 34.8585 34.7072 29.445ZM10.56 33.149C10.56 29.0532 13.89 25.7232 17.9858 25.7232C22.0815 25.7232 25.4116 29.0532 25.4116 33.149C25.4116 37.1913 22.1528 40.4858 18.1282 40.5748C18.0748 40.5748 18.0392 40.5748 17.9858 40.5748C17.9323 40.5748 17.8967 40.5748 17.8433 40.5748C13.8188 40.5036 10.56 37.2091 10.56 33.149ZM22.3486 57.0113H2.88484C3.68619 49.4252 10.097 43.4774 17.8789 43.424C17.9145 43.424 17.9501 43.424 17.9858 43.424C18.0214 43.424 18.057 43.424 18.0926 43.424C21.7966 43.4418 25.1801 44.813 27.7978 47.039C25.2335 49.817 23.3281 53.236 22.3486 57.0113ZM65.3186 64.0987C65.3186 67.7493 62.3447 70.7232 58.6941 70.7232H31.0922C27.4416 70.7232 24.4677 67.7493 24.4677 64.0987V62.8878C24.4677 51.8292 33.3004 42.7829 44.2877 42.4624C44.4836 42.4802 44.6973 42.4802 44.8932 42.4802C45.089 42.4802 45.3027 42.4802 45.4986 42.4624C56.486 42.7829 65.3186 51.8292 65.3186 62.8878V64.0987V64.0987ZM67.4377 57.0113C66.4583 53.2539 64.5884 49.8882 62.0419 47.1102C64.6775 44.8308 68.0966 43.4596 71.8362 43.424C71.8718 43.424 71.9074 43.424 71.943 43.424C71.9786 43.424 72.0142 43.424 72.0499 43.424C79.8318 43.4774 86.2426 49.4252 87.0439 57.0113H67.4377Z" fill="#5879E8"/>
</svg>
