<svg width="69" height="55" viewBox="0 0 69 55" fill="none" xmlns="http://www.w3.org/2000/svg">
<path d="M38.424 6.71826e-06L27.4191 9.49811L39.8202 21.3933L42.0405 4.01863L38.424 6.71826e-06Z" fill="white"/>
<path d="M15.1132 20.1284L26.4912 10.3083L38.5771 21.8802L23.1623 36.976L15.1132 20.1284Z" fill="white"/>
<path d="M-5.7984e-06 33.163L14.2118 20.9063L22.1678 37.9499L20.9247 38.9238L7.49896 41.3586L-5.7984e-06 33.163Z" fill="white"/>
<path d="M65.8766 30.5049L43.0268 5.11459L40.5661 22.3672L52.2515 33.5672L65.8766 30.5049Z" fill="white"/>
<path d="M66.6986 31.4182L53.0403 34.4437L60.0468 41.7028L69 33.9755L66.6986 31.4182Z" fill="white"/>
<path d="M59.3007 42.3467L44.852 55L35.8227 55L38.3285 36.976L51.7542 34.7846L59.3007 42.3467Z" fill="white"/>
<path d="M37.334 37.2194L24.1568 39.4108L31.9529 55L34.5327 55L37.334 37.2194Z" fill="white"/>
<path d="M23.1623 39.6542L8.45317 42.4189L20.9887 55L30.663 55L23.1623 39.6542Z" fill="white"/>
</svg>
