<svg width="174" height="174" fill="none" xmlns="http://www.w3.org/2000/svg"><path d="M157.695 78.844h-.008a8.15 8.15 0 00-5.765 2.394 8.151 8.151 0 00-2.384 5.77 62.55 62.55 0 01-33.674 55.43 62.558 62.558 0 01-64.72-4.22c-28.241-19.775-35.13-58.84-15.355-87.081 19.775-28.241 58.84-35.13 87.081-15.355a62.541 62.541 0 0111.559 10.437h-22.953a8.159 8.159 0 00-8.156 8.156 8.158 8.158 0 008.156 8.156h38.062a8.159 8.159 0 008.157-8.156V16.312a8.159 8.159 0 00-8.157-8.156 8.156 8.156 0 00-8.156 8.156v13.583a79.55 79.55 0 00-9.155-7.476 78.843 78.843 0 00-87.58-1.911 78.838 78.838 0 00-2.86 131.072 78.264 78.264 0 0045.053 14.278 79.867 79.867 0 0013.857-1.218 78.848 78.848 0 0065.154-77.647 8.154 8.154 0 00-8.156-8.15z" fill="#fff"/></svg>