<svg width="66" height="48" viewBox="0 0 66 48" fill="none" xmlns="http://www.w3.org/2000/svg">
<path d="M46.8324 43.556V47.9949H45.4888C45.0434 47.9953 44.6155 47.8214 44.2966 47.5104L32.5457 35.8743L36.0466 32.7902L35.9406 32.6658L46.8324 43.556Z" fill="url(#paint0_linear)"/>
<path d="M46.8324 4.44039V0.00152647H45.4888C45.0434 0.00115699 44.6155 0.175054 44.2966 0.486038L32.4832 12.1845L35.8682 15.3847L36.0566 15.2145L46.8324 4.44039Z" fill="url(#paint1_linear)"/>
<path d="M46.8324 4.44052H57.1504L47.0156 14.3589C45.5061 15.8619 43.4923 16.7508 41.3646 16.853C41.253 16.858 41.1415 16.8597 41.0299 16.8597C40.9184 16.8597 40.8068 16.858 40.6952 16.853C39.0208 16.779 37.4059 16.21 36.0549 15.218L36.0449 15.2097C35.8734 15.0748 32.6583 12.0096 32.6583 12.0096C29.3383 8.8361 20.717 0.497824 20.717 0.497824C20.3982 0.186843 19.9703 0.0129456 19.5249 0.0133113L2.2323 0.0116473C1.79157 0.0116962 1.36072 0.142191 0.994022 0.386691C0.62733 0.63119 0.341208 0.978754 0.171709 1.38559C0.00220949 1.79242 -0.0430824 2.24032 0.0415391 2.67285C0.126161 3.10538 0.33691 3.50319 0.647232 3.81615L20.8203 23.9908L0.650561 44.1838C0.34024 44.4968 0.129492 44.8946 0.0448711 45.3271C-0.03975 45.7597 0.00554222 46.2076 0.175041 46.6144C0.34454 47.0212 0.630662 47.3688 0.997354 47.6133C1.36405 47.8578 1.7949 47.9883 2.23563 47.9884L19.5282 47.9867C19.9736 47.9871 20.4015 47.8132 20.7204 47.5022C20.7204 47.5022 29.3417 39.1639 32.6617 35.9904C32.6617 35.9904 35.8768 32.9269 36.0466 32.7903L36.0566 32.782C37.4083 31.7902 39.0237 31.2213 40.6986 31.147C40.8101 31.142 40.9217 31.1403 41.0332 31.1403C41.1448 31.1403 41.2564 31.142 41.3679 31.147C43.4956 31.2492 45.5095 32.1381 47.0189 33.6411L57.1537 43.5595L46.8324 43.5561V47.995L62.7813 48C63.2221 48 63.6529 47.8695 64.0196 47.625C64.3863 47.3805 64.6724 47.0329 64.8419 46.6261C65.0114 46.2192 65.0567 45.7713 64.9721 45.3388C64.8875 44.9063 64.6767 44.5085 64.3664 44.1955L50.845 30.7107C48.2063 28.1285 44.6614 26.682 40.9693 26.681C37.2773 26.6801 33.7316 28.1248 31.0916 30.7057L18.2046 43.5478H7.63853L25.6754 25.6159C26.1026 25.1865 26.3423 24.6054 26.342 23.9997C26.3417 23.394 26.1014 22.8131 25.6737 22.3841L7.6352 4.45218H18.2012L31.0883 17.2943C33.7283 19.8752 37.274 21.3199 40.966 21.319C44.658 21.318 48.203 19.8715 50.8417 17.2893L64.3631 3.8045C64.6734 3.49154 64.8842 3.09374 64.9688 2.66121C65.0534 2.22868 65.0081 1.78077 64.8386 1.37394C64.6691 0.967108 64.383 0.619545 64.0163 0.375046C63.6496 0.130546 63.2187 4.97159e-05 62.778 0L46.8324 0.00153705V4.44052Z" fill="url(#paint2_linear)"/>
<defs>
<linearGradient id="paint0_linear" x1="36.4154" y1="36.4416" x2="46.5245" y2="46.5506" gradientUnits="userSpaceOnUse">
<stop offset="0.00153" stop-color="#7E1E4C"/>
<stop offset="0.09784" stop-color="#891F57"/>
<stop offset="0.48977" stop-color="#B12580"/>
<stop offset="0.79906" stop-color="#CA289A"/>
<stop offset="0.9853" stop-color="#D329A3"/>
</linearGradient>
<linearGradient id="paint1_linear" x1="9634.56" y1="-8535.49" x2="10570.7" y2="-9408.71" gradientUnits="userSpaceOnUse">
<stop offset="0.00153" stop-color="#7E1E4C"/>
<stop offset="0.09784" stop-color="#891F57"/>
<stop offset="0.48977" stop-color="#B12580"/>
<stop offset="0.79906" stop-color="#CA289A"/>
<stop offset="0.9853" stop-color="#D329A3"/>
</linearGradient>
<linearGradient id="paint2_linear" x1="5.16683" y1="24" x2="53.9696" y2="24" gradientUnits="userSpaceOnUse">
<stop offset="0.00153" stop-color="#FF6C40"/>
<stop offset="0.19213" stop-color="#FE4B5E"/>
<stop offset="0.37461" stop-color="#FD3275"/>
<stop offset="0.48529" stop-color="#FD297E"/>
<stop offset="0.60939" stop-color="#F92981"/>
<stop offset="0.72017" stop-color="#EF298B"/>
<stop offset="0.82587" stop-color="#DC299B"/>
<stop offset="0.92781" stop-color="#C329B1"/>
<stop offset="1" stop-color="#AC29C5"/>
</linearGradient>
</defs>
</svg>
