<svg width="352" height="527" viewBox="0 0 352 527" fill="none" xmlns="http://www.w3.org/2000/svg">
<path d="M189.09 426.863H161.946C142.83 426.863 127.294 441.432 127.294 459.358V494.505C127.294 512.431 142.83 526.999 161.946 526.999H189.09C208.207 526.999 223.742 512.431 223.742 494.505V459.358C223.742 441.378 208.207 426.863 189.09 426.863Z" fill="white"/>
<path d="M14.4715 154.743L58.8373 160.59C72.9095 162.431 86.2653 153.876 91.3312 139.853C97.7277 122.148 106.632 108.179 118.043 98C134.214 83.5978 154.324 76.3425 178.374 76.3425C203.295 76.3425 223.149 83.2729 237.887 97.0796C252.624 110.94 259.942 127.508 259.942 146.946C259.942 160.915 255.797 173.693 247.507 185.28C242.134 192.643 225.606 208.128 198.024 231.789C170.391 255.45 152.021 276.782 142.81 295.732C133.395 315.116 130.12 336.611 129.301 358.16C128.585 376.623 142.503 392 160.004 392H185.078C201.044 392 214.246 379.06 215.679 362.275C216.702 350.202 218.596 341.051 221.462 334.825C226.271 324.158 238.706 310.081 258.663 292.539C297.297 258.698 322.473 231.951 334.295 212.243C346.064 192.589 352 171.744 352 149.707C352 109.912 335.983 74.989 303.899 44.9934C271.865 14.9978 228.676 0 174.434 0C122.853 0 81.251 14.7812 49.5246 44.3978C22.5059 69.6287 6.07984 99.516 0.297447 134.006C-1.49407 144.076 5.00473 153.497 14.4715 154.743Z" fill="white"/>
</svg>
