<svg width="61" height="61" viewBox="0 0 61 61" fill="none" xmlns="http://www.w3.org/2000/svg">
<path d="M52.0664 8.93311C46.3059 3.17244 38.6468 0 30.5001 0C22.3531 0 14.6941 3.17244 8.93357 8.93311C3.17259 14.6939 0 22.3532 0 30.4999C0 38.6471 3.17259 46.3062 8.93357 52.0669C14.6941 57.8276 22.3532 61 30.5001 61C38.6465 61 46.3059 57.8276 52.0666 52.0669C57.8276 46.3061 61 38.6469 61 30.4999C61 22.3534 57.8274 14.6941 52.0664 8.93311ZM30.5001 11.8303C40.7947 11.8303 49.1697 20.2055 49.1697 30.4999C49.1697 40.7944 40.7947 49.1695 30.5001 49.1695C20.2055 49.1695 11.8303 40.7944 11.8303 30.4999C11.8303 20.2055 20.2055 11.8303 30.5001 11.8303ZM50.1061 50.1062C44.869 55.343 37.9062 58.2271 30.5001 58.2271C23.0938 58.2271 16.131 55.343 10.8941 50.1062C5.65696 44.8695 2.77273 37.9063 2.77273 30.4998H9.05744C9.05744 42.3231 18.6765 51.9423 30.5001 51.9423C42.3235 51.9423 51.9424 42.3232 51.9424 30.4998C51.9424 18.6763 42.3234 9.05728 30.5001 9.05728C29.7984 9.05728 29.105 9.09226 28.4206 9.15839V2.84895C29.1091 2.79824 29.8027 2.77258 30.5001 2.77258C37.9062 2.77258 44.869 5.65666 50.1061 10.8936C55.3432 16.1307 58.2273 23.0937 58.2273 30.4998C58.2271 37.9065 55.3432 44.8695 50.1061 50.1062Z" fill="white"/>
</svg>
