<svg width="174" height="174" viewBox="0 0 174 174" fill="none" xmlns="http://www.w3.org/2000/svg">
<path d="M157.695 78.8438H157.687C156.616 78.8446 155.556 79.0565 154.567 79.4672C153.577 79.878 152.679 80.4795 151.922 81.2376C151.165 81.9956 150.565 82.8953 150.156 83.8853C149.747 84.8752 149.537 85.936 149.538 87.0071C149.528 98.4419 146.383 109.655 140.446 119.428C134.51 129.201 126.008 137.159 115.864 142.438C105.721 147.718 94.325 150.115 82.9144 149.371C71.5039 148.627 60.5156 144.769 51.144 138.218C22.903 118.443 16.0147 79.3783 35.7895 51.137C55.5644 22.8956 94.6291 16.0066 122.87 35.7821C127.143 38.766 131.026 42.272 134.429 46.2188H111.476C109.313 46.2188 107.238 47.0781 105.708 48.6077C104.179 50.1373 103.32 52.2118 103.32 54.375C103.32 56.5382 104.179 58.6127 105.708 60.1423C107.238 61.6719 109.313 62.5312 111.476 62.5312H149.538C151.701 62.5312 153.776 61.6719 155.306 60.1423C156.835 58.6127 157.695 56.5382 157.695 54.375V16.3125C157.695 14.1493 156.835 12.0748 155.306 10.5452C153.776 9.01557 151.701 8.15625 149.538 8.15625C147.375 8.15625 145.301 9.01557 143.771 10.5452C142.241 12.0748 141.382 14.1493 141.382 16.3125V29.895C138.52 27.1793 135.46 24.6803 132.227 22.4185C123.746 16.4802 114.178 12.2704 104.071 10.0297C93.9628 7.78886 83.5126 7.56089 73.3168 9.35874C63.1209 11.1566 53.379 14.9451 44.6472 20.5079C35.9154 26.0707 28.3649 33.2989 22.4266 41.7797C10.4336 58.9076 5.73589 80.0981 9.36683 100.69C12.9978 121.281 24.6599 139.587 41.7878 151.58C54.9749 160.868 70.7099 165.855 86.8399 165.858C91.4857 165.856 96.1224 165.448 100.697 164.64C118.952 161.42 135.488 151.872 147.403 137.672C159.318 123.472 165.849 105.529 165.851 86.9929C165.849 84.831 164.989 82.7583 163.459 81.2303C161.93 79.7022 159.857 78.8438 157.695 78.8438V78.8438Z" fill="white"/>
</svg>
