<svg width="57" height="60" viewBox="0 0 57 60" fill="none" xmlns="http://www.w3.org/2000/svg">
<path d="M4.83478 25.0774C6.76373 25.0774 8.50611 23.9192 9.25224 22.1399C12.333 14.8 19.577 9.62712 28.022 9.62712C32.6765 9.62712 36.9438 11.2225 40.3649 13.8685L37.6834 14.2836C36.7674 14.4256 36.0549 15.1523 35.9308 16.0707C35.8064 16.9886 36.3012 17.8792 37.1458 18.2587L51.892 24.8928C52.5384 25.1831 53.2872 25.1273 53.883 24.7444C54.4778 24.3609 54.8391 23.7028 54.843 22.9948L54.9195 6.74663C54.9247 5.8223 54.3221 5.00486 53.4388 4.73542C52.554 4.46598 51.5982 4.80795 51.0862 5.57737L49.0537 8.63198C43.6347 3.29758 36.2093 0 28.022 0C15.6079 0 4.93453 7.58106 0.382347 18.356C-0.249881 19.8495 -0.0905307 21.5596 0.804611 22.9108C1.69975 24.2624 3.21284 25.0774 4.83478 25.0774Z" fill="white"/>
<path d="M55.2396 37.0893C54.3443 35.7376 52.8311 34.9227 51.2093 34.9227C49.2803 34.9227 47.5379 36.0809 46.7918 37.8602C43.711 45.2002 36.467 50.373 28.022 50.373C23.3674 50.373 19.1002 48.7777 15.6789 46.1316L18.3606 45.7168C19.2764 45.5748 19.9889 44.848 20.1133 43.9294C20.2375 43.0116 19.7429 42.1209 18.8982 41.7414L4.15207 35.1073C3.50556 34.8172 2.75683 34.8727 2.16094 35.2557C1.56627 35.6392 1.20484 36.2973 1.20102 37.0052L1.12442 53.2534C1.11925 54.1777 1.72168 54.9951 2.60512 55.2646C3.48992 55.534 4.44589 55.1919 4.95768 54.4224L6.99019 51.3678C12.4091 56.7024 19.8346 60 28.0219 60C40.4363 60 51.1093 52.4191 55.6613 41.6441C56.2939 40.1506 56.1346 38.4406 55.2396 37.0893Z" fill="white"/>
</svg>
