<svg width="82" height="65" fill="none" xmlns="http://www.w3.org/2000/svg"><path d="M43.286 32.857c0 8.498-2.428 16.148-6.303 21.648-3.877 5.502-9.138 8.78-14.84 8.78s-10.963-3.278-14.84-8.78C3.428 49.005 1 41.355 1 32.857 1 24.36 3.428 16.71 7.303 11.21c3.877-5.503 9.138-8.781 14.84-8.781 5.701 0 10.963 3.278 14.84 8.78 3.875 5.5 6.303 13.15 6.303 21.648z" fill="#fff" stroke="#000" stroke-width="2"/><path d="M81 31.429c0 8.497-2.428 16.147-6.303 21.647-3.877 5.502-9.138 8.781-14.84 8.781-5.701 0-10.963-3.279-14.84-8.781-3.875-5.5-6.303-13.15-6.303-21.647 0-8.498 2.428-16.148 6.303-21.648C48.894 4.28 54.156 1 59.857 1c5.702 0 10.963 3.279 14.84 8.781C78.572 15.281 81 22.931 81 31.43z" fill="#fff" stroke="#000" stroke-width="2"/><ellipse cx="25.571" cy="45.143" rx="8.571" ry="12.143" fill="#000"/><ellipse cx="63.286" cy="45.143" rx="8.571" ry="12.143" fill="#000"/></svg>