<svg width="397" height="39" fill="none" xmlns="http://www.w3.org/2000/svg"><path d="M1.464 32h14.124v-.748l-4.576-.572c-1.32-.176-2.288-1.188-2.288-2.552V7.052L26.896 32h1.76V4.984c0-1.32.924-2.42 2.244-2.596l3.344-.44V1.2h-14.08v.748l4.576.572c1.32.176 2.288 1.188 2.288 2.552V25.4L12.772 5.556C9.824 1.42 6.744 1.2.584 1.2v.748c2.684.396 5.324 1.408 6.468 3.432v22.836c0 1.32-.924 2.42-2.244 2.596l-3.344.44V32zm57.595.704c9.328 0 16.236-6.512 16.236-16.104 0-9.592-6.908-16.06-16.236-16.06s-16.28 6.468-16.28 16.06c0 9.592 6.952 16.104 16.28 16.104zm.044-1.54c-8.096 0-11.66-6.996-11.66-15.576 0-8.008 3.74-13.508 11.572-13.508 7.92 0 11.572 6.864 11.572 15.18 0 8.272-3.344 13.904-11.484 13.904zm39.241-14.036h.792c4.532 12.54 12.276 18.172 16.72 20.944-6.248-8.536-9.46-14.168-12.32-21.34 5.368-.924 8.316-3.432 8.316-7.788 0-5.544-5.016-7.744-13.948-7.744h-13.2v.748l2.816.352c1.32.176 2.288 1.188 2.288 2.552v23.496c0 1.364-.968 2.376-2.288 2.552l-2.816.352V32h14.564v-.748l-2.816-.352c-1.32-.176-2.288-1.188-2.288-2.552v-11.22h4.18zM94.164 2.74h4.84c5.984 0 8.668 2.068 8.668 6.424s-2.992 6.424-9.372 6.424h-4.136V2.74zM123.883 32h14.124c10.912 0 17.908-5.544 17.908-15.312 0-10.252-6.996-15.488-17.908-15.488h-14.124v.748l2.816.352c1.32.176 2.288 1.188 2.288 2.552v23.496c0 1.364-.968 2.376-2.288 2.552l-2.816.352V32zm11.748-1.54c-1.32 0-2.288-.748-2.288-2.112V2.74h4.312c6.688 0 13.596 2.772 13.596 13.948 0 10.34-6.116 13.772-13.596 13.772h-2.024zM165.597 32h14.564v-.748l-2.816-.352c-1.32-.176-2.288-1.188-2.288-2.552V4.852c0-1.364.968-2.376 2.288-2.552l2.816-.352V1.2h-14.564v.748l2.816.352c1.32.176 2.288 1.188 2.288 2.552v23.496c0 1.364-.968 2.376-2.288 2.552l-2.816.352V32zm40.695.66c5.104 0 10.56-1.936 14.124-5.28v-2.332c-3.432 3.212-8.14 4.84-12.804 4.84-6.908 0-12.584-5.016-12.584-13.288 0-8.668 3.96-14.52 11.264-14.52 7.304 0 10.12 5.412 9.152 14.916h1.056l2.64-11.748C216.632 2.388 209.812.54 206.292.54c-9.636 0-16.148 6.468-16.148 16.06 0 9.636 6.556 16.06 16.148 16.06zm56.794-15.532h.792c4.532 12.54 12.276 18.172 16.72 20.944-6.248-8.536-9.46-14.168-12.32-21.34 5.368-.924 8.316-3.432 8.316-7.788 0-5.544-5.016-7.744-13.948-7.744h-13.2v.748l2.816.352c1.32.176 2.288 1.188 2.288 2.552v23.496c0 1.364-.968 2.376-2.288 2.552l-2.816.352V32h14.564v-.748l-2.816-.352c-1.32-.176-2.288-1.188-2.288-2.552v-11.22h4.18zm-4.18-14.388h4.84c5.984 0 8.668 2.068 8.668 6.424s-2.992 6.424-9.372 6.424h-4.136V2.74zm45.702 29.964c9.328 0 16.236-6.512 16.236-16.104 0-9.592-6.908-16.06-16.236-16.06s-16.28 6.468-16.28 16.06c0 9.592 6.952 16.104 16.28 16.104zm.044-1.54c-8.096 0-11.66-6.996-11.66-15.576 0-8.008 3.74-13.508 11.572-13.508 7.92 0 11.572 6.864 11.572 15.18 0 8.272-3.344 13.904-11.484 13.904zm40.233 1.496c6.6 0 11.264-3.344 11.264-8.184 0-11.836-18.216-10.428-18.216-16.984 0-3.124 3.168-5.412 7.876-5.412 5.412 0 7.436 2.904 7.964 10.56h1.012l.44-9.988C352.629 1.508 349.329.54 345.809.54c-6.864 0-11.132 3.08-11.132 7.392 0 11.484 18.304 9.68 18.304 17.204 0 3.52-3.608 5.984-7.656 5.984-5.676 0-7.964-3.036-9.02-11.748h-1.012l-.88 10.428c3.036 1.672 5.852 2.86 10.472 2.86zm22.27-.66h27.94l1.319-10.384h-.747c-2.684 6.952-4.532 8.844-8.448 8.844h-8.317c-1.32 0-2.287-.748-2.287-2.112v-11.22h10.339c1.188 0 2.376.836 2.464 1.98l.484 5.148h.749V8.9h-.749l-.484 4.708c-.132 1.188-1.276 1.98-2.464 1.98h-10.339V2.74h9.724c3.256 0 6.071 1.54 7.832 8.888h.747L394.039 1.2h-26.884v.748l2.815.352c1.32.176 2.289 1.188 2.289 2.552v23.496c0 1.364-.969 2.376-2.289 2.552l-2.815.352V32z" fill="#000"/></svg>