<svg width="27" height="27" viewBox="0 0 27 27" fill="none" xmlns="http://www.w3.org/2000/svg">
<path fill-rule="evenodd" clip-rule="evenodd" d="M25.4213 18.6091C26.2968 16.8756 26.752 14.9544 26.7472 13.0068V12.3491C26.3942 5.91403 21.3139 0.833766 14.9515 0.482757L14.2195 0.480755C12.2747 0.47568 10.3529 0.930858 8.6139 1.80922C4.37522 3.92763 1.69367 8.26376 1.69183 13.0079C1.68725 14.7658 2.05852 16.5046 2.7783 18.1066L0.440801 25.1191C0.0971656 26.15 1.07794 27.1308 2.10884 26.7872L9.12134 24.4497C10.7233 25.1694 12.4624 25.5407 14.223 25.5361C18.9642 25.5343 23.3003 22.8527 25.4213 18.6091ZM8.79121 21.779L3.77666 23.4506L5.44818 18.436C5.55937 18.1024 5.53274 17.7383 5.37422 17.4245C4.68314 16.0563 4.32502 14.5442 4.32901 13.0114C4.33047 9.26304 6.44748 5.83978 9.79776 4.16536C11.171 3.47177 12.683 3.11364 14.2159 3.11764L14.8786 3.11765C19.8261 3.3926 23.8346 7.40108 24.1116 12.4212L24.1096 13.0114C24.1136 14.5442 23.7554 16.0563 23.0644 17.4245C21.3874 20.7797 17.9642 22.8968 14.2188 22.8982C12.683 22.9022 11.171 22.5441 9.80276 21.853C9.48892 21.6945 9.12477 21.6679 8.79121 21.779Z" fill="black"/>
</svg>
